<mxfile host="65bd71144e" modified="2021-03-07T14:21:12.596Z" agent="5.0 (Macintosh; Intel Mac OS X 10_15_7) AppleWebKit/537.36 (KHTML, like Gecko) Code/1.54.1 Chrome/87.0.4280.141 Electron/11.3.0 Safari/537.36" version="14.2.4" etag="3N-oSaJRP2SfmPZgMTSJ" type="embed">
    <diagram id="-FQk1_PY0JlxlrykRIRi" name="Page-1">
        <mxGraphModel dx="1032" dy="659" grid="1" gridSize="10" guides="1" tooltips="1" connect="1" arrows="1" fold="1" page="1" pageScale="1" pageWidth="850" pageHeight="1100" math="0" shadow="0">
            <root>
                <mxCell id="0"/>
                <mxCell id="1" parent="0"/>
                <mxCell id="2" value="" style="rounded=0;whiteSpace=wrap;html=1;" vertex="1" parent="1">
                    <mxGeometry x="90" y="110" width="120" height="60" as="geometry"/>
                </mxCell>
                <mxCell id="3" value="" style="rounded=0;whiteSpace=wrap;html=1;" vertex="1" parent="1">
                    <mxGeometry x="90" y="230" width="120" height="110" as="geometry"/>
                </mxCell>
            </root>
        </mxGraphModel>
    </diagram>
</mxfile>